/* XPM */
static char *calvin_con_tesis[] = {
/* width height num_colors chars_per_pixel */
"    65    66      253            2",
/* colors */
".. c #040205",
".# c #0492f4",
".a c #c40204",
".b c #044250",
".c c #948a04",
".d c #fcc204",
".e c #04028e",
".f c #50040c",
".g c #042422",
".h c #84c2c4",
".i c #ccc684",
".j c #c4f2d4",
".k c #8c460c",
".l c #c48a24",
".m c #040251",
".n c #2c2204",
".o c #4c4e14",
".p c #2c020b",
".q c #e4e3ac",
".r c #e4e4e5",
".s c #848489",
".t c #d44204",
".u c #06131b",
".v c #34350c",
".w c #d40204",
".x c #646234",
".y c #fcf3d9",
".z c #ece604",
".A c #fc6e10",
".B c #d4220c",
".C c #c49eec",
".D c #04353f",
".E c #f7d58c",
".F c #c4b24c",
".G c #040230",
".H c #a4a39f",
".I c #fb330f",
".J c #2c6a5c",
".K c #4c2204",
".L c #74460c",
".M c #293436",
".N c #f3f4f4",
".O c #2c4620",
".P c #464446",
".Q c #d4464c",
".R c #17131c",
".S c #fcf04c",
".T c #353434",
".U c #06253a",
".V c #282530",
".W c #fcf298",
".X c #c4c4c7",
".Y c #6c6638",
".Z c #b4b4b4",
".0 c #495354",
".1 c #241214",
".2 c #180210",
".3 c #92958c",
".4 c #eca210",
".5 c #642604",
".6 c #37252f",
".7 c #d3d4d6",
".8 c #8c6614",
".9 c #f9e6d7",
"#. c #fcfefc",
"## c #0402d1",
"#a c #041431",
"#b c #f9f3b1",
"#c c #efb669",
"#d c #050b14",
"#e c #d4c25c",
"#f c #443614",
"#g c #fc513c",
"#h c #44b6a4",
"#i c #14231c",
"#j c #d4724c",
"#k c #fa2407",
"#l c #f73224",
"#m c #393c3c",
"#n c #747474",
"#o c #241321",
"#p c #dcd408",
"#q c #fcfe05",
"#r c #34444c",
"#s c #545453",
"#t c #fcba09",
"#u c #145254",
"#v c #a4a214",
"#w c #fc8804",
"#x c #041749",
"#y c #ebedee",
"#z c #adada9",
"#A c #fcf270",
"#B c #2b2c2f",
"#C c #8c96ac",
"#D c #5c866c",
"#E c #9c3a04",
"#F c #b06004",
"#G c #dc1e04",
"#H c #293b3c",
"#I c #ccdaf1",
"#J c #59352f",
"#K c #5b5d60",
"#L c #040317",
"#M c #0426bc",
"#N c #e45c04",
"#O c #fcfed8",
"#P c #040d2c",
"#Q c #1c2434",
"#R c #b7bbb9",
"#S c #fcfdbb",
"#T c #fc5b49",
"#U c #fa6750",
"#V c #fb2d0a",
"#W c #2b1b25",
"#X c #fc8354",
"#Y c #c4290e",
"#Z c #0402b4",
"#0 c #7c0204",
"#1 c #042b2c",
"#2 c #bcfe8c",
"#3 c #040270",
"#4 c #081c20",
"#5 c #4c7664",
"#6 c #043a54",
"#7 c #fc3d14",
"#8 c #fcf4ec",
"#9 c #c8bcb8",
"a. c #54a2a4",
"a# c #e4a0a4",
"aa c #8c6a7c",
"ab c #7cd6a4",
"ac c #a48a3c",
"ad c #b8c4c4",
"ae c #a8b070",
"af c #7c8248",
"ag c #bceefc",
"ah c #ac7254",
"ai c #c43e54",
"aj c #8cb6e8",
"ak c #985c2c",
"al c #b42a2c",
"am c #2c92bc",
"an c #fc9a04",
"ao c #641a2c",
"ap c #d8d8ac",
"aq c #8c8854",
"ar c #f49e74",
"as c #fc450f",
"at c #2c564c",
"au c #c4523c",
"av c #8c4e34",
"aw c #fcca74",
"ax c #6c8294",
"ay c #3c5644",
"az c #9c3e4c",
"aA c #f80304",
"aB c #fcd522",
"aC c #94ae9c",
"aD c #fcea9c",
"aE c #44222c",
"aF c #743424",
"aG c #646566",
"aH c #6c5a34",
"aI c #ec823c",
"aJ c #fc1a05",
"aK c #a4768c",
"aL c #fc967c",
"aM c #d4fefc",
"aN c #fc764c",
"aO c #3c7e64",
"aP c #706d6c",
"aQ c #d8524c",
"aR c #b4cae4",
"aS c #6caa8c",
"aT c #fc7b07",
"aU c #545e0c",
"aV c #cc925c",
"aW c #74cedc",
"aX c #04526c",
"aY c #fcee2c",
"aZ c #48323a",
"a0 c #fcfd34",
"a1 c #044b69",
"a2 c #fcca2c",
"a3 c #741014",
"a4 c #392519",
"a5 c #374241",
"a6 c #bca634",
"a7 c #dcaa64",
"a8 c #c4c6bc",
"a9 c #d0f2fc",
"b. c #94b6c0",
"b# c #fad6b0",
"ba c #bc824c",
"bb c #bcb670",
"bc c #2c0e1c",
"bd c #9c9e94",
"be c #fcac04",
"bf c #fc465c",
"bg c #fcfe51",
"bh c #fcfd71",
"bi c #fcecc2",
"bj c #e4dee4",
"bk c #3c5a6c",
"bl c #610304",
"bm c #946a44",
"bn c #143e34",
"bo c #4d4b4b",
"bp c #caccd2",
"bq c #192e2c",
"br c #fc3e20",
"bs c #0c5c64",
"bt c #5c3e14",
"bu c #546e5c",
"bv c #0c5e7c",
"bw c #a44e44",
"bx c #f4eef0",
"by c #0402fa",
"bz c #140a84",
"bA c #fcb824",
"bB c #fc4822",
"bC c #8c8c88",
"bD c #1a1c24",
"bE c #042e44",
"bF c #1c0e09",
"bG c #482c40",
"bH c #64a6b4",
"bI c #fccd0c",
"bJ c #fcfe96",
"bK c #341509",
"bL c #9c9a9c",
"bM c #fc6361",
"bN c #143a4c",
"bO c #dc2b14",
"bP c #071b37",
"bQ c #797c7b",
"bR c #b47e64",
"bS c #493e3c",
"bT c #fca50a",
"bU c #dcddde",
"bV c #905004",
"bW c #342e34",
"bX c #4c5634",
"bY c #fcee04",
"bZ c #ac3204",
"b0 c #5c7664",
"b1 c #fc9a2c",
"b2 c #e4564c",
"b3 c #3c4e4c",
"b4 c #54926c",
"b5 c #fc524c",
"b6 c #242624",
/* pixels */
"#.#.#.#.#.#.#.#.#.#.#.#.#.#.#.#.#.#.#.#.#.#.#.#.#.#.#...#.#.#.#.#.#.#.#.#.#.#.#.#.#.#.#.#.#.#.#.#.#.#.#.#.#.#.#.#.#.#.#.#.#.#.#.#.",
"#.#.#.#.#.#.#.#.#.#.#.#.#.#.#.#.#.#.#.#.#.#.#.#.#.#.ae..by..#.#.#.#.#.#.#.#.#.#.#.#.#.#.#.#.#.#.#.#.#.#.#.#.#.#.#.#.#.#.#.#.#.#.#.",
"#.#.#.#.#.#.#.#.#.#.#.#.#.#.#.#.#.#.#.#.#.#.#.#.#.#....G.m.G.G.....q#.#.#.#.#.#.#.#.#.#.#.#.#.#.#.#.#.#.#.#.#.#.#.#.#.#.#.#.#.#.#.",
"#.#.#.#.#.#.#.#.#.#.#.#.#.#.#.#.#.#.#.#.#.#.#.#.#.#....m...m.m...m..##..#.#.#.#.#.#.#.#.#.#.#.#.#.#.#.#.#.#.#.#.#.#.#.#.#.#.#.#.#.",
"#.#.#.#.#.#.#.#.#.#.#.#.#.#.#.#.#.#.#.#.#.#.#.#.#.ap.m.e.e.e.e#3#Z.mby.m.e.....q#.#.#.#.#.#.#.#.#.#.#.#.#.#.#.#.#.#.#.#.#.#.#.#.#.",
"#.#.#.#.#.#.#.#.#.#.#.#.#.#.#.#.#.#.#.#.#.#.#.#.#.#O.mby#q.m##.e#3.e#3#3#3.e.e.G.e#Z#Z..#.#.#.#.#.#.#.#.#.#.#.#.#.#.#.#.#.#.#.#.#.",
"#.#.#.#.#.#.#.#.#.#.#.#.#.#.#.#.#.#.#.#.#.#.#.#.#.ap...Gbg.c#q#q#3.m.m.G.m.m.m.G.m.G#L#.#.#.#.#.#.#.#.#.#.#.#.#.#.#.#.#.#.#.#.#.#.",
"#.#.#.#.#.#.#.#.#.#.#.#.#.#.#.#.#.#.#.#.#.#.#.#.#..x.G##byaYby.e.m#.#O.z#3..#3.m...m.G.q.V..#.#.#.#.#.#.#.#.#.#.#.#.#.#.#.#.#.#.#.",
"#.#.#.#.#.#.#.#.#.#.#.#.#.#.#.#.#.#.#.#.#.#.#.#.#...#Z#q#p..#q#Z#qa9#.#q#3.m...m.m.m#3..bd..#.#.#.#.#.#.#.#.#.#.#.#.#.#.#.#.#.#.#.",
"#.#.#.#.#.#.#.#.#.#.#.#.#.#.#.#.#.#.#.#.#.#.#.#.#b.eby.e#qbybyby...G....#Z.m.m.m.e.e..#.#.#.#.#.#.#.#.#.#.#.#.#.#.#.#.#.#.#.#.#.#.",
"#.#.#.#.#.#.#.#.#.#.#.#.#.#.#.#.#.#.#.#.#.#.#.#.#3#Z#qby#p#q.m#q..#.aT#Zbz.m.T.m.e.m..#..H.X#.#.#.#.#.#.#.#.#.#.#.#.#.#.#.#.#.#.#.",
"#.#.#.#.#.#.#.#.#.#.#.#.#.#.#.#.#.#.#.#.#.#.#...#3#3#qby..#3.e#.ag..#q#3#q..#Z.n.m..#.#...#.#.#.#.#.#.#.#.#.#.#.#.#.#.#.#.#.#.#.#.",
"#.#.#.#.#.#.#.#.#.#.#.#.#.#.#.#.#.#.#.#.#.#.#.#L.m.m.m.m#q#3#qa0#Maw#3#3#3#q#q.m#3...N#.#.#.#.#.#.#.#.#.#.#.#.#.#.#.#.#.#.#.#.#.#.",
"#.#.#.#.#.#.#.#.#.#.#.#.#.#.#.#.#.#.#.#.#.#..v#3.G.e.m.m.m.m.m...e...m...m.m.e.e.e#.#...#.#.#.#.#.#.#.#.#.#.#.#.#.#.#.#.#.#.#.#.#.",
"#.#.#.#.#.#.#.#.#.#.#.#.#.#.#.#.#.#.#.#.#.#....e#3.e.m.G#3#3.m.G.e#3.e#3.e#3#3.e..#.#.#.#.#.#.#.#.#.#.#.#.#.#.#.#.#.#.#.#.#.#.#.#.",
"#.#.#.#.#.#.#.#.#.#.#.#.#.#.#.#.#.#.#.#.#.#.#.#Oaf.....e#.bh#3###3.e#3#3#3#3#Z.m#.#...#.#.#.#.#.#.#.#.#.#.#.#.#.#.#.#.#.#.#.#.#.#.",
"#.#.#.#.#.#.#.#.#.#.#.#.#.#.#.#.#.#.#.#.#.#.#.#.#.#.#.#.aU#...#3.G..#3#3#3.G.G..#.#.#.#.#.#.#.#.#.#.#.#.#.#.#.#.#.#.#.#.#.#.#.#.#.",
"#.#.#.#.#.#.#.#.#.#.#.#.#.#.#.#.#.#.#.#.#.#.#.#.#.#.#.#...#..9#...by#3#3#3#3#3..#...#.#.#.#.#.#.#.#.#.#.#.#.#.#.#.#.#.#.#.#.#.#.#.",
"#.#.#.#.#.#.#.#.#.#.#.#.#.#.#.#.#.#.#.#.#.#.#.#.#.#.#.#.aRbJ#O#O#O#....e.e.e###.bD#.#.#.#.#.#.#.#.#.#.#.#.#.#.#.#.#.#.#.#.#.#.#.#.",
"#.#.#.#.#.#.#.#.#.#.#.#.#.#.#.#.#.#.#.#...#.#.#.#.#.#.#.#.#...#S..bJ#..v#3#Z#v#..s#.#.#.#.#.#.#.#.#.#.#.#.#.#.#.#.#.#.#.#.#.#.#.#.",
"#.#.#.#.#.#.#.#.#.#.#.#.#.#.#.#.#.#.#..r..#.#.#.#.#.#u..#.#...#.#S#.#.#.#.af#..X#.#.#.#.#.#.#.#.#.#.#.#.#.#.#.#.#.#.#.#.#.#.#.#.#.",
"#.#.#.#.#.#.#.#.#.#.#.#.#.#.#...#.#.#.#..F..#.#.#.#.....#.#...#.#.#.#.#.#.#.#.#.#.#.#.#.#.#.#.#.#.#.#.#.#.#.#.#.#.#.#.#.#.#.#.#.#.",
"#.#.#.#.#.#.#.#.#.#.#.#.#.#.#.....#.#.#..kbeam#.#.#...be#.#...#..S#.#.#.#.#.#.#.#.#.#.#.#.#.#.#.#.#.#.#.#.#.#.#.#.#.#.#.#.#.#.#.#.",
"#.#.#.#.#.#.#.#.#.#.#.#.#.#.#...#q..#.#...bI#Faj#.#...#q#.#.ar...S#.#.#.#.#.#.#.#.#.#.#.#.#.#.#.#.#.#.#.#.#.#.#.#.#.#.#.#.#.#.#.#.",
"#.#.#.#.#.#.#.#.#.#.#.#.#...#.#.ak#t..#...aBb1an#x#..ObI.m#...bYbI#.#.#.#.#.#.#.#.#.#.#.#.#.#.#.#.#.#.#.#.#.#.#.#.#.#.#.#.#.#.#.#.",
"#.#.#.#.#.#.#.#.#.#.#.#.#..waW#...a2.A.2...4bTanbT#LaB.San..a0#aba#.#.#.#.#.#.#.#.#.#.#.#.#.#.#.#.#.#.#.#.#.#.#.#.#.#.#.#.#.#.#.#.",
"#.#.#.#.#.#.#.#.#.#.#.#.#.aB#N#.#J.8anaBaD#.#.#.#.bJas.Abg..#S#O#C#.#.#.#.#.#.#.#.#.#.#.#.#.#.#.#.#.#.#.#.#.#.#.#.#.#.#.#.#.#.#.#.",
"#.#.#.#.#.#.#.#.#.#.#.#.#.#.aBaT#..4#O#..Wbq..#1.Gb.#ObIaTa0.G.G..#NaM#.b.#cbl.N#.#.#.#.#.#.#.#.#.#.#.#.#.#.#.#.#.#.#.#.#.#.#.#.#.",
"#.#.#.#.#.#.#.#.#.#.#.b.....aFbV#.#S#..b..bDb6a4.g..#O#S.Cbea0a0bga6a7.p.o.9#9#.#.#.#.#.#.#.#.#.#.#.#.#.#.#.#.#.#.#.#.#.#.#.#.#.#.",
"#.#.#.#.#.#.#.#.#.#.#.#.#.#.#q#.#h.V.YbF.V#BbW.V#5#I.pb#.i.d#.bT..aza9#.bka9..#.#.#.#.#.#.#.#.#.#.#.#.#.#.#.#.#.#.#.#.#.#.#.#.#.#.",
"#.#.#.#.#.#.#.#.#.#.#.#.#..s.....u.R#r.V.Vb0.VbWaObb#ObZ.##t#ca0bga0ao#ObZ.r.Y#.#.#.#.#.#.#.#.#.#.#.#.#.#.#.#.#.#.#.#.#.#.#.#.#.#.",
"#.#.#.#.#.#.#.#.#.#.#.#...b4.u.PbW#fbSb3.paS#Wbc.Jbm#Sb##...a0bg..ac.f.L#8#O.nbP#c.D#.#.#.#.#.#.#.#.#.#.#.#.#.#.#.#.#.#.#.#.#.#.#.",
"#.#.#.#.#.#.#.#.#.#.#.....#B.Tbo#B#W#H#DaEab.R.V#L#b#.b##.#...bJ..#.#.#O#Sb##S#.#..K#.#.#.#.#.#.#.#.#.#.#.#.#.#.#.#.#.#.#.#.#.#.#.",
"#.#.#.#.#.#.#.#.#.#.aibA#......MaC#L......bF.g..#e#O.r.Eb#.y#Oa3bX...E..#..Ebi..a##.#.#.#.#.#.#.#.#.#.#.#.#.#.#.#.#.#.#.#.#.#.#.#.",
"#.#.#.#.#.#.#.#.#.#.#.#.#.#O#o#W#5..#.#.bJ#Obi#S#Obibi#O#O#.#.#...#X..#Aafaaa##.#.#.#.#.#.#.#.#.#.#.#.#.#.#.#.#.#.#.#.#.#.#.#.#.#.",
"#.#.#.#.#.#.#.#.#.#.#.#.#.#....Uay..#.#.#..9aD.y#.#.aDax......#O#.#.aH#baK#.#.#.#.#.#.#.#.#.#.#.#.#.#.#.#.#.#.#.#.#.#.#.#.#.#.#.#.",
"#.#.#.#.#.#.#.#.#.#.#.#.#.#...bJ.l#O....#S#.#ObH#1..#d.Rb6#P#S#.#...#...#.#.#.#.#.#.#.#.#.#.#.#.#.#.#.#.#.#.#.#.#.#.#.#.#.#.#.#.#.",
"#.#.#.#.#.#.#.#.#.#.#.#.#.#.#.a9#O#.#.#O.O....bF#4#4#a.g.V..#.#...#Sat#.#.#.#.#.#.#.#.#.#.#.#.#.#.#.#.#.#.#.#.#.#.#.#.#.#.#.#.#.#.",
"#.#.#.#.#.#.#.#.#.#.#.#.#.#...bh#.#L..#LbD#B#1.D#Q#X#X#T.U#.aR.jb1#.bV#.#.#.#.#.#.#.#.#.#.#.#.#.#.#.#.#.#.#.#.#.#.#.#.#.#.#.#.#.#.",
"#.#.#.#.#.#.#.#.#.#.#.#.#.#S#.#....M.T.6.6bDavbMaNb2#U.M.2..#l..#...#.#.#.#.#.#.#.#.#.#.#.#.#.#.#.#.#.#.#.#.#.#.#.#.#.#.#.#.#.#.#.",
"#.#.#.#.#.#.#.#.#.#.#.#.#.#......a..bDbq#m#H#j#TaQaQ#U..#6#g#V..#...#.#.#.#.#.#.#.#.#.#.#.#.#.#.#.#.#.#.#.#.#.#.#.#.#.#.#.#.#.#.#.",
"#.#.#.#.#.#.#.#.#.#.#.#.#.#.#..a#.#...bD.Mbq#H#T#UaIahaZ.GbO.u#L#d..#.#.#.#.#.#.#.#.#.#.#.#.#.#.#.#.#.#.#.#.#.#.#.#.#.#.#.#.#.#.#.",
"#.#.#.#.#.#.#.#.#.#.#.#.#.#.#.#...#.#Obl..#d.Daq#UbM.D#V#7#g.I#raL..#.#.#.#.#.#.#.#.#.#.#.#.#.#.#.#.#.#.#.#.#.#.#.#.#.#.#.#.#.#.#.",
"#.#.#.#.#.#.#.#.#.#.#.#.#.#.#.#.#..ta.#.#.bB....#d.D#GbNaJ.U.B#JbR..#.#.#.#.#.#.#.#.#.#.#.#.#.#.#.#.#.#.#.#.#.#.#.#.#.#.#.#.#.#.#.",
"#.#.#.#.#.#.#.#.#.#.#.#.#.#.#.#.#.#.#..f#Pad#.#.bP.I.Q#Y#6#VbG#7.U..#.#.#.#.#.#.#.#.#.#.#.#.#.#.#.#.#.#.#.#.#.#.#.#.#.#.#.#.#.#.#.",
"#.#.#.#.#.#.#.#.#.#.#.#.#.#.#.#.#.#.#.#.#.#.#.#YalaFaJ#V#Vbw#g#4..#i#.#.#.#.#.#.#.#.#.#.#.#.#.#.#.#.#.#.#.#.#.#.#.#.#.#.#.#.#.#.#.",
"#.#.#.#.#.#.#.#.#.#.#.#.#.#.#.#.#.#.#.#.#.#.#...bP#V#lbrbf#VbE#T.I.g#.#.#.#.#.#.#.#.#.#.#.#.#.#.#.#..N#.#.#.#.#.#.#.#.#.#.#.#.#.#.",
"#.#.#.#.#.#.#.#.#.#.#.#.#.#.#.#.#.#.#.#.#.#.#...aJ#J#7aJ.I#aaJa1aJ..bK#.#.#.#.#.#.#.#.#.#.#.#.#.#.#8bx.r.r.Nbx.r#8#8#.#.#.#.#.#.#.",
"#.#.#.#.#.#.#.#.#.#.#.#.#.#.#.#.#.#.#.#.#.#.#.#.#0#k#7bra1#T#7#YaJ#6#l..#.#.#.#.#.#.#.#.#.#.#.#.bx#I.H.Z.H#z.Z#RbU#y#.#.#.#.#.#.#.",
"#.#.#.#.#.#.#.#.#.#.#.#.#.#.#.#.#.#.#.#.#.#.#.#.#ubKaJ.b..#VbOaXaJaZbGa3#d#.#.#.#.#.#.#.#.#.#.#y.Z.H#nboaG#KaP.sbL.7#.#.#.#.#.#.#.",
"#.#.#.#.#.#.#.#.#.#.#.#.#.#.#.#.#.#.#.#.#.#.#.#.#.#0#P#P#kbB..bO#7bP#k#k.p#.#.#.#.#.#.#..N.7bp#zbQbo#m.M.6#m.P#K.3.7#.#.#.#.#.#.#.",
"#.#.#.#.#.#.#.#.#.#.#.#.#.#.#.#.#.#.#.#.#.#.#.#.#.#.bl#Wb5br#Vbv.I#7#LaJaA#L#.#.#.#.#.bj.7.HbCaP#s#mbWb6#B.T.P#n.XbU#.#.#.#.#.#.#.",
"#.#.#.#.#.#.#.#.#.#.#.#.#.#.#.#.#.#.#.#.#.#.#.#.#.#.#.#LaAb2#V.I#x#k..bJbwbg#.#.#.#.#ybja8.3.s#n.P#m#BbS.Tbo#n#zbp.N#.#.#.#.#.#.#.",
"#.#.#.#.#.#.#.#.#.#.#.#.#.#.#.#.#.#.#.#.#.#.#.#...bJ#2#.bEaJ.6aA..a0bJ#.aea8#.bj.rbx.N#y#R#9#z.3.3#Kboa5aGbQbd.r.r.N#.#.#.#.#.#.#.",
"#.#.#.#.#.#.#.#.#.#.#.#.#.#.#.#.#.#.#.#.#.#.#.ad#.#E#....D#i..bJ#O#SbJ.5aV.HbU.Z#z.Z.7.7.7#z.H#R.H#n#n#n.Z.ZbU.N#.#.#.#.#.#.#.#.#.",
"#.#.#.#.#.#.#.#.#.#.#.#.#.#.#.#.#.#.#.#.#.#.#.bubv.h..bS.P.p#.#.bJbJbJbb#L.Z.H#naGaGbL#z.3.sbQbC.3#nbQ#z.7.N#8#.#.#.#.#.#.#.#.#.#.",
"#.#.#.#.#.#.#.#.#.#.#.#.#.#.#.#.#.#.#.#.#.#.#..ubB.....MbS.6.........G#L.R#4#K#m.P#m#s.0#s.P.P#K#s.P#n#z#y#y#.#.#.#.#.#.#.#.#.#.#.",
"#.#.#.#.#.#.#.#.#.#.#.#.#.#.#.#.#.#.#.#.#.#.#.bsau#g#ab3bS#m.MaP#daP.Ta5.T.n#m.T.Tb6aZ.P.MaZ.T#B.TbSaP.Z.N#.#.#.#.#.#.#.#.#.#.#.#.",
"#.#.#.#.#.#.#.#.#.#.#.#.#.#.#.#.#.#.#.#.#.#.#.bn..bMbt..bD.T#mbo#H.M#a.U#x#A#o.T.T.Tbq#W.T.6#B#m.M#s.s.X#..N#.#.#.#.#.#.#.#.#.#.#.",
"#.#.#.#.#.#.#.#.#.#.#.#.#.#.#.#.#.#.#.#.#.#.#..g..aY#.#..g#ibk..#P#w.GaYbg#L#B.T.T.T.T#m.Tbq#m.TbobQ.Z.r#..N#.#.#.#.#.#.#.#.#.#.#.",
"#.#.#.#.#.#.#.#.#.#.#.#.#.#.#.#.#.#.#.#.#.#.#.bD#.#..N#.#....p.d#.#S.1#a#P#Q.T.T.T.T.T.T.T#m.T#KbQ#R#y#.#.#.#.#.#.#.#.#.#.#.#.#.#.",
"#.#.#.#.#.#.#.#.#.#.#.#.#.#.#.#.#.#.#.#.#.#.#.bU#.#..N#.#.#...#.#.#.#d.0.6.T#H#B.MbW.M#B#B#Bbo.sbp#y#8.N#.#.#.#.#.#.#.#.#.#.#.#.#.",
"#.#.#.#.#.#.#.#.#.#.#.#.#.#.#.#.#.#.#.#.#.#.#.#...#.#.#...#.#.......bCbQ#sbo#B.T#ma4.T.T.P.T#K.H.r#8#.#.#.#.#.#.#.#.#.#.#.#.#.#.#.",
"#.#.#.#.#.#.#.#.#.#.#.#.#.#.#.#.#.#.#.#.#.#.#.#.#.aA....#F#.#.#.#.#.#y#R.3aPaPaGaGaGaGaG#KaP.sbp#y#8#.#.#.#.#.#.#.#.#.#.#.#.#.#.#.",
"#.#.#.#.#.#.#.#.#.#.#.#.#.#.#.#.#.#.#.#.#.#.#.#.#.#.#.#.#.#.#.#8#.#8#..N#Iad#z#z.Z#z.Z.Z#z.Za8bU#.#.#.#.#.#.#.#.#.#.#.#.#.#.#.#.#.",
"#.#.#.#.#.#.#.#.#.#.#.#.#.#.#.#.#.#.#.#.#.#.#.#.#.#.#.#.#.#.#.#.#.#.#.#8.N.9.r.r.r.N.r.r.rbx.N#.#.#.#.#.#.#.#.#.#.#.#.#.#.#.#.#.#."
};
